<?xml version="1.0" standalone="no"?>
<!DOCTYPE svg PUBLIC "-//W3C//DTD SVG 20010904//EN"
 "http://www.w3.org/TR/2001/REC-SVG-20010904/DTD/svg10.dtd">
<svg version="1.0" xmlns="http://www.w3.org/2000/svg"
 width="5000.000000pt" height="3437.000000pt" viewBox="0 0 5000.000000 3437.000000"
 preserveAspectRatio="xMidYMid meet">
<metadata>
Created by potrace 1.16, written by Peter Selinger 2001-2019
</metadata>
<g transform="translate(0.000000,3437.000000) scale(0.100000,-0.100000)"
fill="#000000" stroke="none">
<path d="M40637 30900 l-27 -21 0 -464 0 -464 22 -15 c33 -23 81 -20 106 7 22
23 22 25 22 474 0 415 -1 452 -17 472 -27 32 -73 37 -106 11z"/>
<path d="M39579 30651 c-16 -16 -29 -38 -29 -49 0 -29 369 -754 397 -779 13
-13 33 -23 44 -23 27 0 79 53 79 80 0 26 -367 757 -392 782 -27 27 -65 22 -99
-11z"/>
<path d="M41687 30663 c-31 -36 -367 -749 -367 -781 0 -55 64 -97 109 -73 11
6 34 39 50 74 16 34 97 203 180 375 90 187 151 326 151 343 0 62 -84 104 -123
62z"/>
<path d="M38729 29971 c-31 -32 -36 -58 -16 -83 20 -27 650 -529 676 -539 51
-20 120 34 107 84 -4 18 -106 106 -343 296 -369 297 -369 296 -424 242z"/>
<path d="M42211 29729 c-233 -185 -343 -279 -347 -295 -12 -48 48 -101 100
-88 13 3 173 125 357 272 320 255 334 269 337 303 3 30 -2 41 -24 58 -54 43
-59 40 -423 -250z"/>
<path d="M40545 29880 c-347 -37 -650 -185 -906 -440 -217 -217 -342 -441
-406 -732 -28 -130 -25 -469 6 -598 69 -294 195 -529 389 -732 260 -270 572
-413 972 -443 172 -14 438 29 620 99 479 185 816 596 916 1116 27 142 25 391
-5 530 -100 472 -386 844 -809 1054 -236 118 -529 173 -777 146z m334 -166
c538 -79 980 -505 1096 -1059 23 -108 30 -303 16 -406 -78 -550 -461 -979
-1001 -1121 -149 -39 -381 -50 -526 -24 -181 31 -344 96 -499 197 -100 66
-295 259 -362 359 -310 464 -321 1020 -29 1459 288 432 805 669 1305 595z"/>
<path d="M38265 29005 c-30 -29 -34 -84 -7 -108 16 -15 821 -207 866 -207 30
0 66 46 66 83 0 63 29 53 -607 197 -145 33 -270 60 -278 60 -9 0 -27 -11 -40
-25z"/>
<path d="M42615 28934 c-433 -100 -445 -104 -445 -159 0 -29 46 -85 70 -85 9
0 206 43 436 95 439 100 454 105 454 157 0 27 -26 74 -45 82 -28 10 -49 6
-470 -90z"/>
<path d="M39030 28115 c-30 -8 -206 -48 -390 -90 -388 -88 -365 -82 -385 -101
-42 -43 5 -141 63 -132 119 20 841 193 855 205 26 24 23 84 -6 111 -27 25 -57
27 -137 7z"/>
<path d="M42212 28123 c-16 -6 -42 -57 -42 -83 0 -31 33 -57 86 -69 27 -5 218
-49 424 -96 405 -92 414 -93 439 -39 16 35 14 58 -6 83 -15 18 -90 38 -432
116 -399 92 -441 99 -469 88z"/>
<path d="M41855 27474 c-34 -36 -31 -64 8 -100 88 -84 682 -545 705 -550 35
-6 89 27 94 58 6 35 -9 59 -65 104 -29 22 -186 147 -350 277 -261 207 -302
237 -333 237 -25 0 -42 -8 -59 -26z"/>
<path d="M39390 27473 c-8 -4 -165 -125 -348 -271 -225 -179 -334 -272 -338
-288 -12 -47 48 -103 98 -91 28 8 686 531 694 552 4 8 3 26 0 40 -9 37 -71 71
-106 58z"/>
<path d="M41325 27035 c-24 -23 -30 -42 -25 -75 1 -8 31 -76 67 -150 36 -74
119 -247 185 -385 65 -137 128 -258 140 -267 45 -39 118 -1 118 62 0 31 -356
787 -388 823 -22 25 -68 21 -97 -8z"/>
<path d="M10567 27015 c-401 -76 -713 -350 -838 -735 l-27 -84 -49 4 c-125 12
-307 2 -404 -23 -200 -52 -370 -147 -508 -286 -204 -205 -308 -445 -318 -736
-12 -321 90 -579 316 -806 199 -199 412 -296 701 -320 81 -7 520 -9 1245 -6
1220 4 1159 1 1341 62 377 126 666 475 724 876 18 125 8 310 -23 431 -105 403
-428 709 -840 796 l-78 17 -30 90 c-114 339 -406 610 -757 702 -124 32 -336
40 -455 18z m411 -235 c136 -38 263 -112 371 -214 140 -134 225 -297 255 -494
l12 -77 115 -11 c226 -22 384 -93 538 -238 458 -437 311 -1197 -279 -1437
-153 -62 -106 -60 -1435 -57 -1369 4 -1243 -4 -1431 89 -174 85 -302 212 -389
384 -64 126 -85 207 -92 350 -12 251 65 459 237 639 116 122 236 195 395 241
166 48 327 44 521 -15 l93 -28 6 67 c26 249 105 430 256 579 129 128 285 209
467 242 79 15 278 4 360 -20z"/>
<path d="M39948 27008 c-22 -18 -398 -761 -398 -787 0 -30 52 -81 82 -81 13 0
31 6 40 13 25 19 398 762 398 791 0 56 -79 97 -122 64z"/>
<path d="M40626 26871 c-16 -18 -17 -56 -16 -473 1 -434 1 -454 20 -472 27
-28 88 -25 112 4 17 21 18 55 18 471 0 436 -1 450 -20 469 -27 27 -90 27 -114
1z"/>
<path d="M23277 26285 c-262 -50 -513 -198 -673 -396 -103 -126 -199 -312
-219 -422 -7 -34 -9 -36 -72 -47 -415 -72 -771 -388 -893 -793 -29 -97 -40
-161 -46 -271 -30 -500 291 -977 766 -1139 189 -64 105 -61 1440 -64 811 -3
1248 -1 1314 7 273 29 507 140 696 330 447 446 448 1165 2 1610 -173 172 -380
279 -617 321 -80 14 -275 18 -352 6 -45 -7 -53 -5 -53 8 0 30 -51 169 -92 250
-147 293 -415 505 -740 586 -112 27 -351 35 -461 14z m363 -221 c175 -33 326
-111 457 -237 95 -91 162 -185 206 -290 41 -98 55 -154 71 -280 8 -60 16 -110
18 -113 2 -2 51 10 108 26 245 71 457 58 668 -41 221 -103 399 -296 481 -523
41 -116 55 -214 48 -358 -10 -237 -87 -413 -256 -591 -123 -128 -259 -207
-436 -252 l-98 -25 -1254 0 c-1105 0 -1263 2 -1331 16 -315 65 -578 300 -681
609 -163 491 107 1018 600 1170 49 15 136 31 205 38 116 12 119 13 122 37 46
405 333 729 722 811 107 22 243 24 350 3z"/>
<path d="M31192 23825 c-307 -54 -580 -235 -752 -496 -58 -88 -116 -214 -140
-304 -7 -27 -16 -53 -20 -58 -3 -4 -50 -3 -105 3 -516 54 -1016 -274 -1184
-776 -225 -671 214 -1383 919 -1490 143 -21 2460 -21 2603 1 319 48 608 233
782 500 69 105 96 161 133 270 42 127 56 221 56 365 -1 310 -114 581 -334 800
-171 171 -387 282 -631 324 -34 6 -37 9 -53 69 -10 34 -35 99 -56 145 -146
312 -425 543 -758 628 -125 32 -336 41 -460 19z m413 -234 c255 -66 470 -241
589 -478 40 -79 80 -211 90 -294 l7 -56 46 -7 c25 -3 65 -6 88 -6 63 0 229
-45 312 -84 107 -51 179 -104 269 -198 171 -178 254 -386 254 -633 0 -222 -66
-407 -206 -584 -113 -141 -310 -266 -499 -313 l-90 -23 -1260 0 -1260 0 -84
23 c-183 50 -311 122 -432 242 -255 253 -340 606 -228 945 79 237 243 423 473
535 152 74 246 93 431 87 132 -4 163 -8 254 -36 57 -18 105 -31 106 -29 1 2 8
48 14 103 17 136 35 202 91 320 124 264 358 443 655 501 96 19 277 11 380 -15z"/>
<path d="M9444 23416 l-34 -34 0 -289 c0 -316 0 -317 60 -348 37 -19 63 -19
100 0 59 30 61 46 58 361 l-3 286 -33 29 c-47 43 -102 41 -148 -5z"/>
<path d="M10269 23421 l-29 -29 0 -582 0 -582 34 -34 c39 -39 77 -44 127 -18
59 30 59 30 59 629 0 586 -1 593 -51 629 -13 9 -43 16 -67 16 -35 0 -49 -6
-73 -29z"/>
<path d="M11108 23421 l-33 -29 -3 -280 c-2 -231 0 -287 12 -316 30 -73 129
-86 180 -25 l26 31 0 291 c0 262 -2 294 -18 313 -42 53 -114 59 -164 15z"/>
<path d="M11934 23416 l-34 -34 0 -576 0 -576 29 -32 c26 -29 35 -33 80 -33
42 0 55 5 78 28 l28 27 0 586 0 586 -33 29 c-47 43 -102 41 -148 -5z"/>
<path d="M9444 22246 l-34 -34 0 -577 0 -577 35 -35 c33 -33 39 -35 81 -30 32
3 55 13 73 31 l26 26 0 586 0 586 -33 29 c-47 43 -102 41 -148 -5z"/>
<path d="M11108 22251 l-33 -29 -3 -571 c-3 -628 -4 -614 58 -646 49 -25 88
-19 126 19 l34 34 0 572 c0 401 -3 578 -11 593 -33 64 -116 77 -171 28z"/>
<path d="M10295 21698 c-54 -30 -55 -30 -55 -346 l0 -294 34 -34 c39 -39 77
-44 127 -18 54 28 59 56 59 344 0 288 -5 316 -59 344 -35 18 -77 20 -106 4z"/>
<path d="M11934 21676 l-34 -34 0 -292 0 -292 35 -35 c33 -33 39 -35 81 -30
32 3 55 13 73 31 l26 26 0 301 0 301 -33 29 c-47 43 -102 41 -148 -5z"/>
<path d="M11220 19427 c-30 -13 -158 -92 -284 -175 l-229 -152 -2897 0 -2897
0 -26 -20 c-15 -12 -223 -249 -464 -528 -675 -782 -1796 -2081 -2108 -2442
-346 -401 -325 -374 -325 -422 0 -32 7 -47 34 -74 34 -34 34 -34 130 -34 l96
0 0 -4600 c0 -4157 2 -4604 16 -4631 8 -17 30 -37 49 -45 51 -21 12838 -21
12889 0 18 8 41 24 50 37 15 22 16 405 16 4866 0 2664 2 4843 4 4843 2 0 29
-16 61 -35 90 -54 144 -68 240 -63 63 3 95 11 138 32 149 72 235 240 207 398
-15 80 -63 170 -114 215 -23 19 -531 359 -1131 754 -599 396 -1409 930 -1798
1187 -389 257 -839 554 -1000 661 -379 251 -366 244 -497 248 -93 3 -112 1
-160 -20z m571 -437 c194 -128 604 -399 909 -600 470 -310 2303 -1521 2810
-1856 101 -66 161 -113 173 -133 38 -65 17 -158 -46 -205 -21 -16 -43 -21 -85
-21 l-57 0 -340 225 c-325 215 -2448 1617 -3336 2203 -334 219 -428 277 -453
277 -26 0 -102 -45 -354 -212 -177 -117 -772 -510 -1322 -873 -550 -363 -1143
-754 -1318 -870 -1131 -748 -1130 -747 -1176 -752 -150 -17 -226 170 -108 268
15 13 334 226 708 472 373 247 794 524 934 617 140 92 602 397 1025 676 424
280 941 622 1150 760 209 138 387 254 395 257 8 4 42 5 76 4 l60 -3 355 -234z
m-1677 -281 c-142 -95 -308 -204 -369 -244 -60 -40 -416 -274 -790 -521 -374
-247 -977 -645 -1340 -884 -363 -239 -678 -453 -701 -476 -22 -22 -54 -67 -70
-100 -26 -54 -29 -68 -29 -164 0 -100 1 -108 34 -168 65 -119 176 -193 305
-200 99 -6 163 11 251 69 42 27 78 49 80 49 3 0 5 -61 5 -135 l0 -135 -2571 0
c-1486 0 -2569 4 -2567 9 2 5 311 366 688 802 1183 1370 1394 1615 1678 1946
l277 322 2689 0 2689 1 -259 -171z m1751 -403 c821 -543 1026 -678 1685 -1113
349 -231 783 -517 963 -636 180 -119 375 -247 432 -284 l105 -68 0 -4842 0
-4843 -3670 0 -3670 0 2 4852 3 4852 960 634 c1437 948 1902 1255 2310 1526
204 134 375 245 380 245 6 1 231 -145 500 -323z m-4375 -7256 l0 -4530 -630 0
-630 0 0 1860 c0 2007 3 1906 -51 1944 -21 15 -129 16 -1212 16 l-1189 0 -34
-34 -34 -34 0 -1876 0 -1876 -620 0 -620 0 0 4530 0 4530 2510 0 2510 0 0
-4530z m-1480 -2730 l0 -1800 -1040 0 -1040 0 0 1800 0 1800 1040 0 1040 0 0
-1800z"/>
<path d="M11220 17795 c-148 -30 -279 -98 -393 -204 -179 -169 -261 -358 -261
-601 1 -244 85 -438 262 -601 161 -149 332 -214 557 -213 157 1 220 15 360 84
439 217 590 768 323 1178 -181 277 -525 422 -848 357z m50 -455 l0 -240 -240
0 c-132 0 -240 2 -240 3 0 19 49 144 73 187 38 68 145 177 212 216 43 25 165
73 188 74 4 0 7 -108 7 -240z m324 209 c115 -43 239 -147 301 -253 27 -46 75
-166 75 -186 0 -6 -94 -10 -240 -10 l-240 0 0 241 0 241 25 -6 c14 -4 50 -16
79 -27z m-324 -908 l0 -239 -51 13 c-193 51 -360 220 -414 418 l-13 47 239 0
239 0 0 -239z m694 212 c-48 -201 -203 -367 -403 -432 -35 -12 -66 -21 -68
-21 -1 0 -3 108 -3 240 l0 240 240 0 240 0 -6 -27z"/>
<path d="M8724 14846 l-34 -34 0 -1223 c0 -1196 1 -1225 20 -1256 12 -21 32
-36 57 -43 27 -8 256 -10 765 -8 l728 3 32 33 33 32 3 1220 c2 1079 0 1224
-13 1250 -32 62 -1 60 -816 60 l-741 0 -34 -34z m1386 -651 l0 -465 -600 0
-600 0 0 465 0 465 600 0 600 0 0 -465z m-2 -1187 l-3 -503 -597 -3 -598 -2 0
505 0 505 600 0 600 0 -2 -502z"/>
<path d="M10618 14864 c-61 -33 -58 41 -58 -1279 0 -1001 2 -1211 14 -1239 28
-68 2 -66 805 -66 791 0 774 -1 805 59 15 27 16 156 14 1256 l-3 1225 -28 27
-27 28 -748 2 c-647 2 -751 0 -774 -13z m1362 -669 l0 -465 -600 0 -600 0 0
465 0 465 600 0 600 0 0 -465z m0 -1190 l0 -505 -597 2 -598 3 -3 503 -2 502
600 0 600 0 0 -505z"/>
<path d="M12488 14851 l-33 -29 -3 -1226 c-2 -1101 -1 -1230 14 -1257 31 -60
14 -59 805 -59 636 0 725 2 754 16 69 32 65 -49 65 1289 0 1325 4 1247 -60
1280 -25 13 -127 15 -769 15 l-741 0 -32 -29z m1382 -656 l0 -465 -600 0 -600
0 0 465 0 465 600 0 600 0 0 -465z m-2 -1187 l-3 -503 -597 -3 -598 -2 0 505
0 505 600 0 600 0 -2 -502z"/>
<path d="M8723 11235 c-67 -29 -63 54 -63 -1294 l0 -1221 29 -32 29 -33 746
-3 c655 -2 750 0 776 13 64 33 60 -45 60 1280 0 1337 4 1262 -64 1290 -51 22
-1464 22 -1513 0z m1357 -670 l0 -465 -600 0 -600 0 0 465 0 465 600 0 600 0
0 -465z m0 -1190 l0 -505 -600 0 -600 0 0 505 0 505 600 0 600 0 0 -505z"/>
<path d="M10592 11235 c-65 -29 -62 41 -62 -1290 0 -1325 -4 -1247 60 -1280
26 -13 121 -15 775 -13 l745 3 27 28 28 27 3 1225 c2 1348 6 1267 -58 1300
-42 22 -1467 22 -1518 0z m1358 -670 l0 -465 -600 0 -600 0 0 458 c0 252 3
462 7 465 3 4 273 7 600 7 l593 0 0 -465z m0 -1190 l0 -505 -600 0 -600 0 0
505 0 505 600 0 600 0 0 -505z"/>
<path d="M12474 11231 c-17 -10 -36 -32 -42 -47 -9 -22 -12 -327 -10 -1251 l3
-1223 28 -27 27 -28 745 -3 c828 -3 792 -5 821 63 21 52 21 2419 -1 2471 -27
66 -2 64 -812 64 -695 0 -729 -1 -759 -19z m1366 -666 l0 -465 -600 0 -600 0
0 465 0 465 600 0 600 0 0 -465z m0 -1190 l0 -505 -600 0 -600 0 0 505 0 505
600 0 600 0 0 -505z"/>
<path d="M3242 14867 c-56 -31 -53 13 -52 -872 0 -893 -3 -849 58 -874 20 -8
507 -11 1770 -9 l1744 3 29 33 29 32 0 816 0 816 -34 34 -34 34 -1744 0
c-1378 -1 -1748 -3 -1766 -13z m3358 -242 l0 -35 -1600 0 -1600 0 0 28 c0 16
3 32 7 35 3 4 723 7 1600 7 l1593 0 0 -35z m-1710 -775 l0 -520 -742 2 -743 3
-3 505 c-1 278 0 511 3 518 3 9 162 12 745 12 l740 0 0 -520z m1708 -2 l2
-518 -745 0 -745 0 0 513 c0 283 3 517 7 520 3 4 338 6 742 5 l736 -3 3 -517z"/>
<path d="M38310 18991 c-88 -27 -174 -103 -212 -186 -17 -38 -22 -69 -23 -130
0 -102 31 -171 110 -244 l55 -50 0 -719 0 -719 -377 -249 c-746 -491 -825
-546 -864 -597 -52 -70 -74 -137 -73 -232 0 -69 5 -90 31 -147 73 -155 233
-243 397 -217 71 12 111 28 171 69 l45 31 0 -1539 0 -1539 -285 -759 c-200
-534 -285 -771 -285 -799 0 -42 20 -75 57 -94 14 -7 106 -11 267 -11 l246 0 1
-2217 c0 -1692 3 -2226 12 -2252 7 -19 23 -42 37 -53 28 -20 -486 -18 5359
-18 l2313 0 34 34 34 34 0 2236 0 2236 256 0 256 0 34 34 c25 25 34 43 34 67
0 18 -126 368 -290 806 l-290 773 2 1540 3 1540 54 -36 c110 -74 202 -99 305
-82 124 19 230 100 284 216 23 49 27 70 27 152 0 83 -4 103 -28 156 -16 35
-49 81 -75 107 -40 38 -528 363 -2497 1662 -126 83 -576 380 -1000 660 -492
325 -790 515 -825 528 -72 25 -213 21 -280 -9 -44 -20 -217 -133 -1280 -836
l-515 -340 -3 296 -2 297 48 47 c74 72 97 128 97 237 0 76 -4 98 -25 140 -35
71 -108 139 -175 164 -54 20 -72 21 -598 20 -298 0 -553 -4 -567 -8z m1116
-245 c26 -26 34 -42 34 -71 0 -29 -8 -45 -34 -71 l-34 -34 -514 0 c-565 0
-541 -3 -574 62 -22 42 -11 90 27 122 l31 26 515 0 515 0 34 -34z m2246 -53
c75 -49 342 -225 594 -391 253 -167 1145 -757 1983 -1310 838 -554 1533 -1019
1544 -1034 31 -41 33 -115 5 -162 -40 -68 -130 -96 -197 -61 -16 8 -217 139
-447 291 -231 152 -720 476 -1089 719 -368 243 -1084 715 -1590 1050 -506 334
-933 614 -949 622 -17 9 -40 12 -60 9 -17 -4 -244 -147 -503 -319 -260 -171
-1052 -694 -1760 -1162 -709 -467 -1414 -933 -1567 -1034 -255 -169 -284 -185
-330 -189 -56 -4 -101 18 -140 70 -26 37 -27 112 0 156 14 26 255 189 1029
700 556 367 1139 752 1297 857 158 104 516 341 795 525 280 184 645 425 813
536 168 111 312 204 320 207 8 3 38 6 66 6 47 1 60 -5 186 -86z m-2364 -695
l2 -348 -401 -265 c-221 -146 -410 -270 -420 -276 -19 -9 -19 5 -19 616 l0
625 418 -2 417 -3 3 -347z m2743 -191 c651 -429 1323 -873 2342 -1546 l747
-493 -2 -1592 -3 -1591 -3667 -3 -3668 -2 1 1587 0 1588 287 188 c447 294
2784 1836 3102 2048 157 104 291 187 298 184 8 -3 261 -168 563 -368z m3380
-6087 c131 -349 239 -636 239 -637 0 -2 -1890 -3 -4200 -3 -2310 0 -4200 3
-4200 7 0 3 107 291 237 640 l238 633 3724 -2 3724 -3 238 -635z m-291 -3020
l0 -2160 -2185 0 -2185 0 -2 1506 -3 1506 -33 29 -32 29 -896 0 c-814 0 -897
-1 -920 -16 -57 -38 -54 56 -54 -1564 l0 -1490 -515 0 -515 0 0 2160 0 2160
3670 0 3670 0 0 -2160z m-4590 -735 l0 -1425 -750 0 -750 0 0 1425 0 1425 750
0 750 0 0 -1425z"/>
<path d="M41338 17350 c-234 -43 -430 -171 -555 -362 -250 -383 -138 -901 248
-1141 190 -118 436 -157 644 -101 232 62 439 236 537 451 110 243 97 517 -35
753 -50 90 -194 239 -279 289 -69 40 -153 75 -234 96 -69 19 -259 28 -326 15z
m22 -460 l0 -240 -241 0 -241 0 7 33 c3 17 24 69 45 113 45 96 138 201 226
254 49 29 171 79 197 80 4 0 7 -108 7 -240z m371 186 c77 -39 153 -99 201
-159 48 -60 106 -178 115 -230 l6 -37 -237 0 -236 0 0 239 0 239 48 -13 c27
-7 73 -25 103 -39z m-371 -887 l0 -241 -25 6 c-175 44 -331 171 -406 331 -21
44 -41 95 -44 113 l-7 32 241 0 241 0 0 -241z m690 221 c0 -58 -74 -201 -147
-281 -66 -73 -196 -149 -295 -173 l-28 -6 0 240 0 240 235 0 c227 0 235 -1
235 -20z"/>
<path d="M38895 14976 c-16 -7 -39 -23 -50 -36 -20 -22 -20 -38 -23 -679 -2
-459 0 -667 8 -694 7 -25 22 -45 43 -57 31 -19 55 -20 695 -20 728 0 705 -2
737 60 14 26 15 113 13 700 l-3 670 -33 32 -32 33 -663 2 c-535 2 -668 0 -692
-11z m1205 -256 l0 -40 -530 0 -530 0 0 38 c0 21 2 41 4 43 2 2 241 3 530 1
l526 -2 0 -40z m0 -635 l0 -375 -530 0 -530 0 0 375 0 375 530 0 530 0 0 -375z"/>
<path d="M42743 14975 c-18 -7 -42 -29 -53 -47 -19 -32 -20 -49 -20 -686 0
-715 -1 -706 59 -736 26 -14 111 -16 691 -16 726 0 703 -2 735 60 14 26 15
113 13 700 l-3 670 -33 32 -32 33 -663 2 c-553 2 -667 0 -694 -12z m1207 -256
l0 -39 -527 2 -528 3 -3 37 -3 38 523 2 c288 2 526 2 531 0 4 -2 7 -21 7 -43z
m0 -634 l0 -375 -527 2 -528 3 -3 373 -2 372 530 0 530 0 0 -375z"/>
<path d="M41774 10176 l-34 -34 0 -872 0 -872 34 -34 34 -34 1154 0 c1077 0
1154 2 1174 18 12 9 27 27 33 39 8 15 11 270 11 888 l0 867 -34 34 -34 34
-1152 0 -1152 0 -34 -34z m2186 -241 l0 -55 -1000 0 -1000 0 0 55 0 55 1000 0
1000 0 0 -55z m0 -830 l0 -555 -1000 0 -1000 0 0 555 0 555 1000 0 1000 0 0
-555z"/>
<path d="M23970 14415 c-14 -7 -31 -24 -38 -37 -7 -13 -45 -133 -86 -268 -41
-135 -142 -468 -224 -740 -83 -272 -219 -720 -302 -995 -83 -275 -205 -676
-271 -891 -68 -223 -119 -409 -119 -432 0 -33 6 -45 35 -71 l36 -31 179 0 180
0 0 -760 c0 -648 -2 -760 -14 -753 -15 8 -961 632 -1769 1167 -265 175 -500
327 -522 337 -57 26 -173 26 -225 -1 -21 -11 -290 -186 -597 -388 -307 -203
-846 -559 -1198 -791 -388 -256 -655 -438 -677 -463 -38 -40 -68 -116 -68
-168 0 -51 30 -126 67 -169 79 -93 210 -118 317 -62 l56 30 2 -1264 3 -1265
33 -32 32 -33 2128 -3 c1488 -2 2138 0 2164 8 20 6 46 22 57 37 21 26 21 30
21 1284 0 693 1 1259 3 1259 1 0 24 -11 51 -25 30 -15 66 -25 93 -25 l43 0 0
-1220 c0 -1344 -4 -1264 62 -1291 46 -19 11190 -20 11226 -1 16 9 27 10 42 2
14 -7 412 -11 1286 -11 1407 0 1300 -5 1330 67 22 52 16 2368 -6 2402 -36 54
27 52 -1331 52 l-1252 0 6 482 c4 265 7 732 7 1039 l0 558 206 3 206 3 24 28
c43 50 41 63 -35 315 -40 131 -139 458 -221 727 -81 270 -193 639 -248 820
-55 182 -182 600 -282 930 -162 536 -184 603 -211 628 l-29 27 -5073 0 c-4295
-1 -5076 -3 -5097 -15z m10109 -412 c35 -115 119 -390 186 -613 68 -223 205
-675 305 -1005 100 -330 224 -737 275 -905 l93 -305 -1396 -3 -1395 -2 -86 55
c-88 57 -425 280 -1956 1292 -478 316 -895 587 -925 602 -71 34 -181 36 -250
4 -25 -11 -171 -103 -325 -205 -154 -101 -746 -492 -1315 -868 -569 -376
-1102 -728 -1185 -782 l-149 -98 -1383 0 c-761 0 -1383 4 -1383 8 0 5 20 76
46 158 25 82 103 340 174 574 71 234 199 657 285 940 86 283 213 702 282 930
69 228 127 418 130 423 2 4 2233 7 4957 7 l4953 0 62 -207z m-4587 -1348 c222
-147 635 -419 918 -606 597 -394 1041 -688 1431 -945 152 -100 279 -190 283
-199 14 -37 6 -74 -20 -94 -54 -42 109 -143 -1699 1052 -994 657 -1244 822
-1277 843 -24 15 -53 24 -78 24 -37 0 -76 -23 -363 -213 -177 -117 -557 -367
-845 -557 -287 -190 -803 -531 -1147 -757 -414 -274 -633 -413 -650 -413 -55
0 -95 79 -62 123 6 10 171 122 364 250 558 367 1909 1259 2296 1515 193 128
361 237 372 242 11 5 32 8 47 5 14 -2 208 -124 430 -270z m32 -476 c259 -171
771 -510 1139 -752 l667 -440 0 -2209 0 -2208 -655 0 -655 0 -2 1416 -3 1416
-33 29 -32 29 -909 0 -909 0 -31 -29 -31 -29 0 -1416 0 -1416 -655 0 -655 0 0
2204 0 2204 998 658 c548 363 1062 702 1142 756 80 53 147 97 149 97 2 1 215
-139 475 -310z m-3772 -1304 c-3 -63 0 -83 21 -127 29 -64 84 -120 146 -150
37 -19 63 -23 131 -23 99 0 113 7 338 157 74 49 137 87 140 83 4 -4 8 -960 10
-2126 l2 -2119 -1480 0 -1480 0 4 1263 c3 694 5 1278 5 1297 0 19 -2 437 -5
928 l-5 892 1088 0 1088 0 -3 -75z m8754 -1482 c-3 -857 -9 -1843 -12 -2190
l-6 -633 -1469 0 -1469 0 0 2135 0 2135 58 -37 c31 -20 117 -76 190 -124 73
-49 149 -93 170 -98 93 -26 210 -2 284 59 21 17 51 59 69 95 27 54 31 74 31
139 l-1 76 1081 0 1081 0 -7 -1557z m-13096 1056 c239 -158 775 -512 1190
-786 l755 -499 0 -34 c0 -24 -5 -36 -16 -38 -9 -2 -201 118 -425 267 -702 463
-924 610 -1419 937 -264 174 -496 324 -516 332 -33 13 -40 12 -77 -5 -22 -10
-354 -225 -736 -478 -383 -253 -899 -594 -1147 -757 -247 -164 -459 -298 -469
-298 -23 0 -44 35 -33 54 4 8 211 148 458 312 1414 934 1923 1269 1944 1280
13 7 31 10 40 6 9 -3 212 -135 451 -293z m337 -586 c439 -289 889 -586 1001
-660 l202 -133 0 -1250 c0 -687 0 -1253 0 -1257 0 -5 -109 -8 -242 -8 l-243 0
-5 1050 c-3 578 -9 1058 -14 1068 -24 49 37 47 -1510 47 l-1444 0 -31 -31 -31
-30 -2 -1052 -3 -1052 -235 0 -235 0 -3 1261 -2 1261 632 417 c348 230 795
525 993 656 198 131 363 239 367 239 4 1 367 -236 805 -526z m8053 -1958 l0
-1335 -760 0 -760 0 0 1328 c0 731 3 1332 7 1335 3 4 345 7 760 7 l753 0 0
-1335z m5150 -295 l0 -1040 -50 0 -50 0 0 1033 c0 569 3 1037 7 1040 3 4 26 7
50 7 l43 0 0 -1040z m360 0 l0 -1040 -70 0 -70 0 0 1040 0 1040 70 0 70 0 0
-1040z m360 0 l0 -1040 -70 0 -70 0 0 1040 0 1040 70 0 70 0 0 -1040z m368 -2
l2 -1038 -75 0 -75 0 0 1040 0 1041 73 -3 72 -3 3 -1037z m362 2 l0 -1040 -75
0 -75 0 0 1033 c0 569 3 1037 7 1040 3 4 37 7 75 7 l68 0 0 -1040z m360 0 l0
-1040 -70 0 -70 0 0 1040 0 1040 70 0 70 0 0 -1040z m330 0 l0 -1040 -55 0
-55 0 0 1040 0 1040 55 0 55 0 0 -1040z m-14850 835 l0 -55 -1295 0 -1295 0 0
55 0 55 1295 0 1295 0 0 -55z m0 -295 l0 -80 -1295 0 -1295 0 0 80 0 80 1295
0 1295 0 0 -80z m0 -310 l0 -80 -1295 0 -1295 0 0 80 0 80 1295 0 1295 0 0
-80z m0 -320 l0 -80 -1295 0 -1295 0 0 80 0 80 1295 0 1295 0 0 -80z m0 -310
l0 -80 -1295 0 -1295 0 0 80 0 80 1295 0 1295 0 0 -80z m0 -320 l0 -80 -1295
0 -1295 0 0 80 0 80 1295 0 1295 0 0 -80z m0 -285 l0 -55 -1295 0 -1295 0 0
55 0 55 1295 0 1295 0 0 -55z"/>
<path d="M28890 11811 c-196 -43 -380 -164 -495 -326 -58 -82 -90 -148 -121
-252 -23 -76 -27 -106 -27 -223 0 -117 4 -147 27 -223 43 -143 96 -236 195
-341 316 -333 847 -340 1171 -16 321 321 320 844 -1 1160 -103 102 -221 171
-361 210 -107 31 -278 36 -388 11z m60 -451 l0 -240 -235 0 c-269 0 -252 -8
-214 97 62 167 197 299 366 359 37 13 71 24 76 24 4 0 7 -108 7 -240z m326
208 c133 -49 263 -170 325 -303 20 -44 40 -95 44 -112 l7 -33 -241 0 -241 0 0
240 0 240 28 -6 c15 -4 50 -15 78 -26z m-326 -908 l0 -240 -27 6 c-100 24
-230 100 -296 173 -71 79 -111 149 -141 249 l-15 52 240 0 239 0 0 -240z m700
230 c0 -20 -48 -140 -75 -186 -77 -131 -227 -242 -377 -278 l-28 -6 0 240 0
240 240 0 c146 0 240 -4 240 -10z"/>
<path d="M24373 10144 c-66 -33 -63 19 -63 -1046 0 -1077 -4 -1013 70 -1051
33 -16 81 -17 695 -15 612 3 662 4 686 21 14 9 31 29 37 43 9 18 12 284 12
1000 0 1081 4 1021 -65 1050 -29 12 -145 14 -687 14 -573 0 -657 -2 -685 -16z
m1217 -1044 l0 -840 -527 0 -528 0 2 833 c2 457 3 835 3 840 0 4 236 7 525 7
l525 0 0 -840z"/>
<path d="M32324 10146 c-67 -30 -64 22 -64 -1053 0 -748 3 -973 13 -992 6 -13
25 -34 40 -45 28 -21 34 -21 703 -21 l674 0 32 33 33 32 3 985 c3 1094 6 1032
-63 1061 -49 20 -1324 20 -1371 0z m1216 -1046 l0 -840 -530 0 -530 0 0 840 0
840 530 0 530 0 0 -840z"/>
<path d="M20850 9847 c-25 -7 -63 -22 -85 -32 -59 -28 -151 -125 -183 -192
-24 -52 -27 -69 -27 -168 0 -104 2 -114 32 -176 40 -81 121 -160 200 -197 77
-35 205 -43 284 -17 161 52 272 190 286 353 14 172 -73 324 -229 401 -55 28
-81 34 -150 37 -50 2 -101 -1 -128 -9z m203 -237 c80 -55 107 -152 67 -235
-30 -63 -84 -98 -158 -103 -104 -6 -182 62 -190 166 -6 90 35 156 119 192 40
16 124 6 162 -20z"/>
<path d="M46835 13761 c-155 -72 -299 -367 -451 -925 -307 -1127 -481 -2754
-368 -3436 36 -213 149 -486 277 -666 112 -158 325 -343 460 -399 l37 -15 0
-1008 c0 -980 1 -1008 20 -1039 27 -46 84 -62 134 -38 70 33 66 -34 66 1074
l0 1000 55 25 c239 109 467 348 600 629 94 198 146 397 166 634 17 198 6 756
-21 1053 -101 1142 -349 2321 -595 2825 -76 156 -139 238 -214 277 -62 33
-110 35 -166 9z m108 -243 c180 -239 411 -1120 556 -2118 86 -587 115 -955
116 -1430 0 -439 -8 -517 -75 -722 -70 -213 -159 -367 -294 -507 -73 -75 -206
-181 -228 -181 -4 0 -8 271 -8 603 l0 603 235 338 c248 357 252 365 220 426
-17 32 -61 60 -95 60 -49 0 -80 -32 -216 -229 l-139 -200 -5 728 c-5 772 -4
745 -50 776 -51 34 -121 21 -150 -28 -19 -30 -20 -53 -20 -394 0 -200 -3 -363
-7 -363 -4 0 -66 59 -138 130 -127 126 -133 130 -174 130 -36 0 -49 -6 -77
-34 -28 -28 -34 -41 -34 -77 0 -43 2 -45 215 -259 l215 -216 -2 -992 -3 -992
-53 36 c-142 95 -285 268 -372 449 -131 272 -168 516 -156 1020 25 1068 303
2633 580 3266 43 96 111 209 126 209 5 0 20 -15 33 -32z"/>
<path d="M16393 13579 c-149 -74 -289 -359 -437 -890 -144 -517 -278 -1259
-350 -1929 -36 -339 -48 -525 -53 -857 -8 -483 8 -644 88 -890 118 -362 352
-661 635 -809 l74 -39 0 -1000 c0 -982 0 -1001 20 -1033 38 -62 114 -70 166
-18 l34 34 0 1001 0 1001 62 31 c220 111 428 317 555 549 90 165 168 406 193
595 18 136 24 607 11 843 -69 1215 -375 2722 -652 3208 -108 189 -230 261
-346 203z m176 -356 c237 -479 479 -1642 583 -2793 18 -200 22 -315 22 -630 0
-428 -8 -510 -74 -709 -90 -277 -266 -525 -460 -650 l-65 -42 -3 601 -2 602
223 321 c123 177 229 332 236 344 21 41 13 83 -23 119 -41 41 -97 47 -139 14
-14 -12 -86 -107 -159 -212 l-133 -192 -3 723 c-2 710 -2 724 -23 752 -29 41
-86 56 -132 34 -66 -31 -67 -40 -67 -441 l0 -358 -133 132 c-132 130 -134 132
-179 132 -82 0 -135 -72 -105 -142 8 -18 105 -123 216 -233 l201 -200 0 -987
c0 -544 -3 -988 -6 -988 -19 0 -139 98 -205 167 -91 95 -140 166 -204 293
-129 255 -165 456 -165 904 1 594 81 1324 236 2136 129 678 321 1291 448 1428
l21 24 26 -31 c14 -17 45 -70 68 -118z"/>
<path d="M17464 8660 c-363 -84 -637 -345 -751 -717 -25 -82 -27 -101 -27
-268 0 -168 2 -186 28 -270 110 -363 384 -626 736 -707 47 -11 95 -22 108 -24
l22 -4 0 -619 c0 -605 0 -619 20 -644 11 -14 36 -31 54 -37 46 -15 98 7 126
52 19 32 20 49 20 640 l0 608 23 4 c149 31 223 54 312 99 353 176 579 559 558
947 -13 267 -122 503 -316 686 -122 116 -275 203 -432 245 -115 31 -366 36
-481 9z m461 -233 c266 -87 473 -316 531 -586 18 -85 18 -247 -1 -333 -59
-281 -286 -518 -570 -594 -87 -24 -85 -26 -85 76 l0 90 145 218 c129 193 145
222 145 259 0 60 -44 103 -105 103 -53 0 -75 -18 -139 -112 l-45 -68 -3 289
-3 290 -29 30 c-35 36 -68 45 -112 31 -63 -21 -74 -48 -74 -176 0 -63 -4 -114
-8 -114 -5 0 -21 13 -36 29 -16 16 -41 35 -57 41 -70 30 -149 -25 -149 -102 0
-38 7 -47 125 -168 l125 -127 -1 -302 0 -301 -24 0 c-39 0 -157 40 -235 81
-187 97 -325 265 -392 479 -19 64 -23 96 -23 215 0 119 4 151 23 215 75 239
234 418 452 511 113 48 178 59 330 55 112 -3 148 -8 215 -29z"/>
<path d="M2180 5583 c-39 -13 -63 -30 -76 -55 -31 -60 -8 -129 53 -154 49 -21
14717 -21 14767 0 42 18 66 51 66 93 0 43 -18 79 -49 100 -25 17 -372 18
-7386 20 -4048 1 -7367 -1 -7375 -4z"/>
<path d="M18333 5579 c-45 -13 -73 -53 -73 -103 0 -50 21 -83 66 -102 51 -21
13678 -21 13729 0 49 21 69 56 62 112 -6 54 -27 80 -76 94 -47 13 -13662 12
-13708 -1z"/>
<path d="M36533 5579 c-17 -5 -41 -21 -52 -35 -26 -33 -28 -100 -5 -133 38
-54 -158 -51 3096 -51 2848 0 3015 1 3048 18 21 10 42 32 54 55 16 34 17 42 5
74 -8 20 -27 45 -42 57 l-28 21 -3022 2 c-1828 1 -3035 -2 -3054 -8z"/>
<path d="M44503 5579 c-45 -13 -73 -53 -73 -103 0 -50 21 -83 66 -102 50 -21
3128 -21 3178 0 45 19 66 52 66 102 0 52 -28 90 -78 104 -48 13 -3113 12
-3159 -1z"/>
</g>
</svg>
